<?xml version="1.0" standalone="no"?><!DOCTYPE svg PUBLIC "-//W3C//DTD SVG 1.1//EN" "http://www.w3.org/Graphics/SVG/1.1/DTD/svg11.dtd"><svg class="icon" height="512" viewBox="0 0 1024 1024" version="1.1" xmlns="http://www.w3.org/2000/svg"><path d="M937.560814 399.36878 540.669458 123.547851c-19.014052-11.888771-40.402175-11.888771-57.037041 0L84.363921 399.36878c-21.389146 14.266935-28.519544 45.176922-11.882632 68.955488 14.258749 21.399379 47.53155 28.532847 68.921719 11.887748l342.230432-235.398288c14.258749-11.888771 40.401152-11.888771 54.661947 0l342.228385 235.398288c9.505491 7.134491 19.012006 9.511631 28.519544 9.511631 16.635889 0 30.895661-7.132444 40.402175-21.399379C966.080358 444.546725 958.94996 413.635715 937.560814 399.36878L937.560814 399.36878zM804.470633 463.568964 538.294364 285.23637c-14.260795-9.510608-40.403199-9.510608-54.661947 0L217.452056 463.568964c-14.257725 9.510608-26.14138 33.288151-26.14138 52.311413l0 359.040283c0 19.021216 14.259772 33.289174 33.271778 33.289174l128.336924 0c16.635889 0 33.272801-14.267958 33.272801-33.289174L386.192178 627.632577c0-19.021216 14.259772-33.287127 33.271778-33.287127l182.997847 0c19.012006 0 33.271778 14.265912 33.271778 33.287127l0 247.288083c0 19.021216 16.637935 33.289174 35.648918 33.289174L797.343305 908.209834c19.012006 0 33.271778-14.267958 33.271778-33.289174l2.375094-359.040283C832.990177 496.857115 818.730405 473.079572 804.470633 463.568964L804.470633 463.568964zM832.990177 182.991708c0-23.777543-21.3871-42.799782-45.154409-42.799782l-54.662971 0c-23.766286 0-45.153386 19.022239-45.153386 42.799782l0 2.378164 144.970766 99.866499L832.990177 182.991708z" /></svg>